<mxfile host="app.diagrams.net" modified="2024-06-14T20:43:48.981Z" agent="Mozilla/5.0 (Windows NT 10.0; Win64; x64) AppleWebKit/537.36 (KHTML, like Gecko) Chrome/125.0.0.0 Safari/537.36" etag="jj4_thpauImzyKQOBOnO" version="24.5.4" type="google">
  <diagram name="Page-1" id="kUGOon6hqxiXHWQnhP3O">
    <mxGraphModel grid="1" page="1" gridSize="10" guides="1" tooltips="1" connect="1" arrows="1" fold="1" pageScale="1" pageWidth="850" pageHeight="1100" math="0" shadow="0">
      <root>
        <mxCell id="0" />
        <mxCell id="1" parent="0" />
        <mxCell id="rXIfPj3CGaV-F-2-Byq_-1" value="&lt;span style=&quot;font-size: 20px;&quot;&gt;&lt;b&gt;&lt;i&gt;ejercicio_15_FileManager&lt;/i&gt;&lt;/b&gt;&lt;/span&gt;" style="text;html=1;align=center;verticalAlign=middle;resizable=0;points=[];autosize=1;strokeColor=none;fillColor=none;" vertex="1" parent="1">
          <mxGeometry x="770" y="-2280" width="270" height="40" as="geometry" />
        </mxCell>
        <mxCell id="rXIfPj3CGaV-F-2-Byq_-2" value="&lt;b style=&quot;&quot;&gt;&lt;i&gt;&lt;font style=&quot;font-size: 20px;&quot;&gt;Patron Decorator&lt;/font&gt;&lt;/i&gt;&lt;/b&gt;" style="text;html=1;align=center;verticalAlign=middle;resizable=0;points=[];autosize=1;strokeColor=none;fillColor=none;" vertex="1" parent="1">
          <mxGeometry x="40" y="-3280" width="190" height="40" as="geometry" />
        </mxCell>
        <mxCell id="IE9EZzf0pemrarUlTUZ8-63" style="edgeStyle=orthogonalEdgeStyle;rounded=0;orthogonalLoop=1;jettySize=auto;html=1;entryX=0.75;entryY=1;entryDx=0;entryDy=0;endSize=12;startSize=12;dashed=1;dashPattern=8 8;endArrow=block;endFill=0;" edge="1" parent="1" source="IE9EZzf0pemrarUlTUZ8-1" target="IE9EZzf0pemrarUlTUZ8-39">
          <mxGeometry relative="1" as="geometry">
            <Array as="points">
              <mxPoint x="690" y="-2860" />
              <mxPoint x="490" y="-2860" />
            </Array>
          </mxGeometry>
        </mxCell>
        <mxCell id="IE9EZzf0pemrarUlTUZ8-70" style="edgeStyle=orthogonalEdgeStyle;rounded=0;orthogonalLoop=1;jettySize=auto;html=1;endSize=12;startSize=12;" edge="1" parent="1" source="IE9EZzf0pemrarUlTUZ8-1" target="IE9EZzf0pemrarUlTUZ8-39">
          <mxGeometry relative="1" as="geometry">
            <Array as="points">
              <mxPoint x="850" y="-2765" />
              <mxPoint x="850" y="-3020" />
            </Array>
          </mxGeometry>
        </mxCell>
        <mxCell id="IE9EZzf0pemrarUlTUZ8-1" value="Aspect" style="swimlane;fontStyle=0;align=center;verticalAlign=top;childLayout=stackLayout;horizontal=1;startSize=30;horizontalStack=0;resizeParent=1;resizeLast=0;collapsible=1;marginBottom=0;rounded=0;shadow=0;strokeWidth=1;fillColor=#fff2cc;strokeColor=#d6b656;" vertex="1" parent="1">
          <mxGeometry x="610" y="-2800" width="160" height="70" as="geometry">
            <mxRectangle x="110" y="-20" width="160" height="26" as="alternateBounds" />
          </mxGeometry>
        </mxCell>
        <mxCell id="IE9EZzf0pemrarUlTUZ8-2" value="" style="line;html=1;strokeWidth=1;align=left;verticalAlign=middle;spacingTop=-1;spacingLeft=3;spacingRight=3;rotatable=0;labelPosition=right;points=[];portConstraint=eastwest;" vertex="1" parent="IE9EZzf0pemrarUlTUZ8-1">
          <mxGeometry y="30" width="160" height="8" as="geometry" />
        </mxCell>
        <mxCell id="IE9EZzf0pemrarUlTUZ8-3" value="+ prettyPrint() : String" style="text;align=left;verticalAlign=top;spacingLeft=4;spacingRight=4;overflow=hidden;rotatable=0;points=[[0,0.5],[1,0.5]];portConstraint=eastwest;rounded=0;shadow=0;html=0;" vertex="1" parent="IE9EZzf0pemrarUlTUZ8-1">
          <mxGeometry y="38" width="160" height="24" as="geometry" />
        </mxCell>
        <mxCell id="IE9EZzf0pemrarUlTUZ8-5" value="&lt;font size=&quot;1&quot; style=&quot;&quot;&gt;&lt;b style=&quot;&quot;&gt;&lt;i style=&quot;font-size: 14px;&quot;&gt;Decorartor&lt;/i&gt;&lt;/b&gt;&lt;/font&gt;" style="text;html=1;align=center;verticalAlign=middle;whiteSpace=wrap;rounded=0;fontSize=16;" vertex="1" parent="1">
          <mxGeometry x="610" y="-2820" width="70" height="20" as="geometry" />
        </mxCell>
        <mxCell id="IE9EZzf0pemrarUlTUZ8-64" style="edgeStyle=orthogonalEdgeStyle;rounded=0;orthogonalLoop=1;jettySize=auto;html=1;endSize=12;startSize=12;endArrow=block;endFill=0;" edge="1" parent="1" source="IE9EZzf0pemrarUlTUZ8-7" target="IE9EZzf0pemrarUlTUZ8-1">
          <mxGeometry relative="1" as="geometry">
            <Array as="points">
              <mxPoint x="690" y="-2620" />
            </Array>
          </mxGeometry>
        </mxCell>
        <mxCell id="IE9EZzf0pemrarUlTUZ8-7" value="AspectExtension" style="swimlane;fontStyle=0;align=center;verticalAlign=top;childLayout=stackLayout;horizontal=1;startSize=30;horizontalStack=0;resizeParent=1;resizeLast=0;collapsible=1;marginBottom=0;rounded=0;shadow=0;strokeWidth=1;fillColor=#fff2cc;strokeColor=#d6b656;" vertex="1" parent="1">
          <mxGeometry x="450" y="-2660" width="160" height="70" as="geometry">
            <mxRectangle x="110" y="-20" width="160" height="26" as="alternateBounds" />
          </mxGeometry>
        </mxCell>
        <mxCell id="IE9EZzf0pemrarUlTUZ8-8" value="" style="line;html=1;strokeWidth=1;align=left;verticalAlign=middle;spacingTop=-1;spacingLeft=3;spacingRight=3;rotatable=0;labelPosition=right;points=[];portConstraint=eastwest;" vertex="1" parent="IE9EZzf0pemrarUlTUZ8-7">
          <mxGeometry y="30" width="160" height="8" as="geometry" />
        </mxCell>
        <mxCell id="IE9EZzf0pemrarUlTUZ8-9" value="+ prettyPrint() : String" style="text;align=left;verticalAlign=top;spacingLeft=4;spacingRight=4;overflow=hidden;rotatable=0;points=[[0,0.5],[1,0.5]];portConstraint=eastwest;rounded=0;shadow=0;html=0;" vertex="1" parent="IE9EZzf0pemrarUlTUZ8-7">
          <mxGeometry y="38" width="160" height="24" as="geometry" />
        </mxCell>
        <mxCell id="IE9EZzf0pemrarUlTUZ8-10" value="&lt;font size=&quot;1&quot; style=&quot;&quot;&gt;&lt;b style=&quot;&quot;&gt;&lt;i style=&quot;font-size: 12px;&quot;&gt;Concrete Decorator&lt;/i&gt;&lt;/b&gt;&lt;/font&gt;" style="text;html=1;align=center;verticalAlign=middle;whiteSpace=wrap;rounded=0;fontSize=16;" vertex="1" parent="1">
          <mxGeometry x="450" y="-2680" width="120" height="20" as="geometry" />
        </mxCell>
        <mxCell id="IE9EZzf0pemrarUlTUZ8-66" style="edgeStyle=orthogonalEdgeStyle;rounded=0;orthogonalLoop=1;jettySize=auto;html=1;endSize=12;startSize=12;endArrow=block;endFill=0;" edge="1" parent="1" source="IE9EZzf0pemrarUlTUZ8-15" target="IE9EZzf0pemrarUlTUZ8-1">
          <mxGeometry relative="1" as="geometry">
            <Array as="points">
              <mxPoint x="690" y="-2500" />
            </Array>
          </mxGeometry>
        </mxCell>
        <mxCell id="IE9EZzf0pemrarUlTUZ8-15" value="AspectFechaCreacion" style="swimlane;fontStyle=0;align=center;verticalAlign=top;childLayout=stackLayout;horizontal=1;startSize=30;horizontalStack=0;resizeParent=1;resizeLast=0;collapsible=1;marginBottom=0;rounded=0;shadow=0;strokeWidth=1;fillColor=#fff2cc;strokeColor=#d6b656;" vertex="1" parent="1">
          <mxGeometry x="450" y="-2540" width="160" height="70" as="geometry">
            <mxRectangle x="110" y="-20" width="160" height="26" as="alternateBounds" />
          </mxGeometry>
        </mxCell>
        <mxCell id="IE9EZzf0pemrarUlTUZ8-16" value="" style="line;html=1;strokeWidth=1;align=left;verticalAlign=middle;spacingTop=-1;spacingLeft=3;spacingRight=3;rotatable=0;labelPosition=right;points=[];portConstraint=eastwest;" vertex="1" parent="IE9EZzf0pemrarUlTUZ8-15">
          <mxGeometry y="30" width="160" height="8" as="geometry" />
        </mxCell>
        <mxCell id="IE9EZzf0pemrarUlTUZ8-17" value="+ prettyPrint() : String" style="text;align=left;verticalAlign=top;spacingLeft=4;spacingRight=4;overflow=hidden;rotatable=0;points=[[0,0.5],[1,0.5]];portConstraint=eastwest;rounded=0;shadow=0;html=0;" vertex="1" parent="IE9EZzf0pemrarUlTUZ8-15">
          <mxGeometry y="38" width="160" height="24" as="geometry" />
        </mxCell>
        <mxCell id="IE9EZzf0pemrarUlTUZ8-18" value="&lt;font size=&quot;1&quot; style=&quot;&quot;&gt;&lt;b style=&quot;&quot;&gt;&lt;i style=&quot;font-size: 12px;&quot;&gt;Concrete Decorator&lt;/i&gt;&lt;/b&gt;&lt;/font&gt;" style="text;html=1;align=center;verticalAlign=middle;whiteSpace=wrap;rounded=0;fontSize=16;" vertex="1" parent="1">
          <mxGeometry x="450" y="-2560" width="120" height="20" as="geometry" />
        </mxCell>
        <mxCell id="IE9EZzf0pemrarUlTUZ8-69" style="edgeStyle=orthogonalEdgeStyle;rounded=0;orthogonalLoop=1;jettySize=auto;html=1;endSize=12;startSize=12;endArrow=block;endFill=0;" edge="1" parent="1" source="IE9EZzf0pemrarUlTUZ8-19" target="IE9EZzf0pemrarUlTUZ8-1">
          <mxGeometry relative="1" as="geometry">
            <Array as="points">
              <mxPoint x="690" y="-2385" />
            </Array>
          </mxGeometry>
        </mxCell>
        <mxCell id="IE9EZzf0pemrarUlTUZ8-19" value="AspectFechaModificacion" style="swimlane;fontStyle=0;align=center;verticalAlign=top;childLayout=stackLayout;horizontal=1;startSize=30;horizontalStack=0;resizeParent=1;resizeLast=0;collapsible=1;marginBottom=0;rounded=0;shadow=0;strokeWidth=1;fillColor=#fff2cc;strokeColor=#d6b656;" vertex="1" parent="1">
          <mxGeometry x="450" y="-2420" width="160" height="70" as="geometry">
            <mxRectangle x="110" y="-20" width="160" height="26" as="alternateBounds" />
          </mxGeometry>
        </mxCell>
        <mxCell id="IE9EZzf0pemrarUlTUZ8-20" value="" style="line;html=1;strokeWidth=1;align=left;verticalAlign=middle;spacingTop=-1;spacingLeft=3;spacingRight=3;rotatable=0;labelPosition=right;points=[];portConstraint=eastwest;" vertex="1" parent="IE9EZzf0pemrarUlTUZ8-19">
          <mxGeometry y="30" width="160" height="8" as="geometry" />
        </mxCell>
        <mxCell id="IE9EZzf0pemrarUlTUZ8-21" value="+ prettyPrint() : String" style="text;align=left;verticalAlign=top;spacingLeft=4;spacingRight=4;overflow=hidden;rotatable=0;points=[[0,0.5],[1,0.5]];portConstraint=eastwest;rounded=0;shadow=0;html=0;" vertex="1" parent="IE9EZzf0pemrarUlTUZ8-19">
          <mxGeometry y="38" width="160" height="24" as="geometry" />
        </mxCell>
        <mxCell id="IE9EZzf0pemrarUlTUZ8-22" value="&lt;font size=&quot;1&quot; style=&quot;&quot;&gt;&lt;b style=&quot;&quot;&gt;&lt;i style=&quot;font-size: 12px;&quot;&gt;Concrete Decorator&lt;/i&gt;&lt;/b&gt;&lt;/font&gt;" style="text;html=1;align=center;verticalAlign=middle;whiteSpace=wrap;rounded=0;fontSize=16;" vertex="1" parent="1">
          <mxGeometry x="450" y="-2440" width="120" height="20" as="geometry" />
        </mxCell>
        <mxCell id="IE9EZzf0pemrarUlTUZ8-65" style="edgeStyle=orthogonalEdgeStyle;rounded=0;orthogonalLoop=1;jettySize=auto;html=1;endSize=12;startSize=12;endArrow=block;endFill=0;" edge="1" parent="1" source="IE9EZzf0pemrarUlTUZ8-27" target="IE9EZzf0pemrarUlTUZ8-1">
          <mxGeometry relative="1" as="geometry">
            <Array as="points">
              <mxPoint x="690" y="-2620" />
            </Array>
          </mxGeometry>
        </mxCell>
        <mxCell id="IE9EZzf0pemrarUlTUZ8-27" value="AspectNombre" style="swimlane;fontStyle=0;align=center;verticalAlign=top;childLayout=stackLayout;horizontal=1;startSize=30;horizontalStack=0;resizeParent=1;resizeLast=0;collapsible=1;marginBottom=0;rounded=0;shadow=0;strokeWidth=1;fillColor=#fff2cc;strokeColor=#d6b656;" vertex="1" parent="1">
          <mxGeometry x="770" y="-2660" width="160" height="70" as="geometry">
            <mxRectangle x="110" y="-20" width="160" height="26" as="alternateBounds" />
          </mxGeometry>
        </mxCell>
        <mxCell id="IE9EZzf0pemrarUlTUZ8-28" value="" style="line;html=1;strokeWidth=1;align=left;verticalAlign=middle;spacingTop=-1;spacingLeft=3;spacingRight=3;rotatable=0;labelPosition=right;points=[];portConstraint=eastwest;" vertex="1" parent="IE9EZzf0pemrarUlTUZ8-27">
          <mxGeometry y="30" width="160" height="8" as="geometry" />
        </mxCell>
        <mxCell id="IE9EZzf0pemrarUlTUZ8-29" value="+ prettyPrint() : String" style="text;align=left;verticalAlign=top;spacingLeft=4;spacingRight=4;overflow=hidden;rotatable=0;points=[[0,0.5],[1,0.5]];portConstraint=eastwest;rounded=0;shadow=0;html=0;" vertex="1" parent="IE9EZzf0pemrarUlTUZ8-27">
          <mxGeometry y="38" width="160" height="24" as="geometry" />
        </mxCell>
        <mxCell id="IE9EZzf0pemrarUlTUZ8-30" value="&lt;font size=&quot;1&quot; style=&quot;&quot;&gt;&lt;b style=&quot;&quot;&gt;&lt;i style=&quot;font-size: 12px;&quot;&gt;Concrete Decorator&lt;/i&gt;&lt;/b&gt;&lt;/font&gt;" style="text;html=1;align=center;verticalAlign=middle;whiteSpace=wrap;rounded=0;fontSize=16;" vertex="1" parent="1">
          <mxGeometry x="770" y="-2680" width="120" height="20" as="geometry" />
        </mxCell>
        <mxCell id="IE9EZzf0pemrarUlTUZ8-67" style="edgeStyle=orthogonalEdgeStyle;rounded=0;orthogonalLoop=1;jettySize=auto;html=1;endSize=12;startSize=12;endArrow=block;endFill=0;" edge="1" parent="1" source="IE9EZzf0pemrarUlTUZ8-31" target="IE9EZzf0pemrarUlTUZ8-1">
          <mxGeometry relative="1" as="geometry">
            <Array as="points">
              <mxPoint x="690" y="-2500" />
            </Array>
          </mxGeometry>
        </mxCell>
        <mxCell id="IE9EZzf0pemrarUlTUZ8-31" value="AspectPermisos" style="swimlane;fontStyle=0;align=center;verticalAlign=top;childLayout=stackLayout;horizontal=1;startSize=30;horizontalStack=0;resizeParent=1;resizeLast=0;collapsible=1;marginBottom=0;rounded=0;shadow=0;strokeWidth=1;fillColor=#fff2cc;strokeColor=#d6b656;" vertex="1" parent="1">
          <mxGeometry x="770" y="-2540" width="160" height="70" as="geometry">
            <mxRectangle x="110" y="-20" width="160" height="26" as="alternateBounds" />
          </mxGeometry>
        </mxCell>
        <mxCell id="IE9EZzf0pemrarUlTUZ8-32" value="" style="line;html=1;strokeWidth=1;align=left;verticalAlign=middle;spacingTop=-1;spacingLeft=3;spacingRight=3;rotatable=0;labelPosition=right;points=[];portConstraint=eastwest;" vertex="1" parent="IE9EZzf0pemrarUlTUZ8-31">
          <mxGeometry y="30" width="160" height="8" as="geometry" />
        </mxCell>
        <mxCell id="IE9EZzf0pemrarUlTUZ8-33" value="+ prettyPrint() : String" style="text;align=left;verticalAlign=top;spacingLeft=4;spacingRight=4;overflow=hidden;rotatable=0;points=[[0,0.5],[1,0.5]];portConstraint=eastwest;rounded=0;shadow=0;html=0;" vertex="1" parent="IE9EZzf0pemrarUlTUZ8-31">
          <mxGeometry y="38" width="160" height="24" as="geometry" />
        </mxCell>
        <mxCell id="IE9EZzf0pemrarUlTUZ8-34" value="&lt;font size=&quot;1&quot; style=&quot;&quot;&gt;&lt;b style=&quot;&quot;&gt;&lt;i style=&quot;font-size: 12px;&quot;&gt;Concrete Decorator&lt;/i&gt;&lt;/b&gt;&lt;/font&gt;" style="text;html=1;align=center;verticalAlign=middle;whiteSpace=wrap;rounded=0;fontSize=16;" vertex="1" parent="1">
          <mxGeometry x="770" y="-2560" width="120" height="20" as="geometry" />
        </mxCell>
        <mxCell id="IE9EZzf0pemrarUlTUZ8-68" style="edgeStyle=orthogonalEdgeStyle;rounded=0;orthogonalLoop=1;jettySize=auto;html=1;endSize=12;startSize=12;endArrow=block;endFill=0;" edge="1" parent="1" source="IE9EZzf0pemrarUlTUZ8-35" target="IE9EZzf0pemrarUlTUZ8-1">
          <mxGeometry relative="1" as="geometry">
            <Array as="points">
              <mxPoint x="690" y="-2385" />
            </Array>
          </mxGeometry>
        </mxCell>
        <mxCell id="IE9EZzf0pemrarUlTUZ8-35" value="AspectTamanio" style="swimlane;fontStyle=0;align=center;verticalAlign=top;childLayout=stackLayout;horizontal=1;startSize=30;horizontalStack=0;resizeParent=1;resizeLast=0;collapsible=1;marginBottom=0;rounded=0;shadow=0;strokeWidth=1;fillColor=#fff2cc;strokeColor=#d6b656;" vertex="1" parent="1">
          <mxGeometry x="770" y="-2420" width="160" height="70" as="geometry">
            <mxRectangle x="110" y="-20" width="160" height="26" as="alternateBounds" />
          </mxGeometry>
        </mxCell>
        <mxCell id="IE9EZzf0pemrarUlTUZ8-36" value="" style="line;html=1;strokeWidth=1;align=left;verticalAlign=middle;spacingTop=-1;spacingLeft=3;spacingRight=3;rotatable=0;labelPosition=right;points=[];portConstraint=eastwest;" vertex="1" parent="IE9EZzf0pemrarUlTUZ8-35">
          <mxGeometry y="30" width="160" height="8" as="geometry" />
        </mxCell>
        <mxCell id="IE9EZzf0pemrarUlTUZ8-37" value="+ prettyPrint() : String" style="text;align=left;verticalAlign=top;spacingLeft=4;spacingRight=4;overflow=hidden;rotatable=0;points=[[0,0.5],[1,0.5]];portConstraint=eastwest;rounded=0;shadow=0;html=0;" vertex="1" parent="IE9EZzf0pemrarUlTUZ8-35">
          <mxGeometry y="38" width="160" height="24" as="geometry" />
        </mxCell>
        <mxCell id="IE9EZzf0pemrarUlTUZ8-38" value="&lt;font size=&quot;1&quot; style=&quot;&quot;&gt;&lt;b style=&quot;&quot;&gt;&lt;i style=&quot;font-size: 12px;&quot;&gt;Concrete Decorator&lt;/i&gt;&lt;/b&gt;&lt;/font&gt;" style="text;html=1;align=center;verticalAlign=middle;whiteSpace=wrap;rounded=0;fontSize=16;" vertex="1" parent="1">
          <mxGeometry x="770" y="-2440" width="120" height="20" as="geometry" />
        </mxCell>
        <mxCell id="IE9EZzf0pemrarUlTUZ8-39" value="&lt;&lt;Interface&gt;&gt;&#xa;FileOO2" style="swimlane;fontStyle=0;align=center;verticalAlign=top;childLayout=stackLayout;horizontal=1;startSize=40;horizontalStack=0;resizeParent=1;resizeLast=0;collapsible=1;marginBottom=0;rounded=0;shadow=0;strokeWidth=1;fillColor=#fff2cc;strokeColor=#d6b656;" vertex="1" parent="1">
          <mxGeometry x="280" y="-3160" width="280" height="260" as="geometry">
            <mxRectangle x="110" y="-20" width="160" height="26" as="alternateBounds" />
          </mxGeometry>
        </mxCell>
        <mxCell id="IE9EZzf0pemrarUlTUZ8-40" value="" style="line;html=1;strokeWidth=1;align=left;verticalAlign=middle;spacingTop=-1;spacingLeft=3;spacingRight=3;rotatable=0;labelPosition=right;points=[];portConstraint=eastwest;" vertex="1" parent="IE9EZzf0pemrarUlTUZ8-39">
          <mxGeometry y="40" width="280" height="8" as="geometry" />
        </mxCell>
        <mxCell id="IE9EZzf0pemrarUlTUZ8-41" value="+ &lt;&lt;abstract&gt;&gt; prettyPrint() : String" style="text;align=left;verticalAlign=top;spacingLeft=4;spacingRight=4;overflow=hidden;rotatable=0;points=[[0,0.5],[1,0.5]];portConstraint=eastwest;rounded=0;shadow=0;html=0;" vertex="1" parent="IE9EZzf0pemrarUlTUZ8-39">
          <mxGeometry y="48" width="280" height="24" as="geometry" />
        </mxCell>
        <mxCell id="IE9EZzf0pemrarUlTUZ8-43" value="+ &lt;&lt;abstract&gt;&gt; getNombre() : String" style="text;align=left;verticalAlign=top;spacingLeft=4;spacingRight=4;overflow=hidden;rotatable=0;points=[[0,0.5],[1,0.5]];portConstraint=eastwest;rounded=0;shadow=0;html=0;" vertex="1" parent="IE9EZzf0pemrarUlTUZ8-39">
          <mxGeometry y="72" width="280" height="24" as="geometry" />
        </mxCell>
        <mxCell id="IE9EZzf0pemrarUlTUZ8-44" value="+ &lt;&lt;abstract&gt;&gt; getExtension() : String" style="text;align=left;verticalAlign=top;spacingLeft=4;spacingRight=4;overflow=hidden;rotatable=0;points=[[0,0.5],[1,0.5]];portConstraint=eastwest;rounded=0;shadow=0;html=0;" vertex="1" parent="IE9EZzf0pemrarUlTUZ8-39">
          <mxGeometry y="96" width="280" height="24" as="geometry" />
        </mxCell>
        <mxCell id="IE9EZzf0pemrarUlTUZ8-46" value="+ &lt;&lt;abstract&gt;&gt; getTamanio() : String" style="text;align=left;verticalAlign=top;spacingLeft=4;spacingRight=4;overflow=hidden;rotatable=0;points=[[0,0.5],[1,0.5]];portConstraint=eastwest;rounded=0;shadow=0;html=0;" vertex="1" parent="IE9EZzf0pemrarUlTUZ8-39">
          <mxGeometry y="120" width="280" height="24" as="geometry" />
        </mxCell>
        <mxCell id="IE9EZzf0pemrarUlTUZ8-45" value="+ &lt;&lt;abstract&gt;&gt; getFechaCreacion() : String" style="text;align=left;verticalAlign=top;spacingLeft=4;spacingRight=4;overflow=hidden;rotatable=0;points=[[0,0.5],[1,0.5]];portConstraint=eastwest;rounded=0;shadow=0;html=0;" vertex="1" parent="IE9EZzf0pemrarUlTUZ8-39">
          <mxGeometry y="144" width="280" height="24" as="geometry" />
        </mxCell>
        <mxCell id="IE9EZzf0pemrarUlTUZ8-47" value="+ &lt;&lt;abstract&gt;&gt; getFechaCreacion() : String" style="text;align=left;verticalAlign=top;spacingLeft=4;spacingRight=4;overflow=hidden;rotatable=0;points=[[0,0.5],[1,0.5]];portConstraint=eastwest;rounded=0;shadow=0;html=0;" vertex="1" parent="IE9EZzf0pemrarUlTUZ8-39">
          <mxGeometry y="168" width="280" height="24" as="geometry" />
        </mxCell>
        <mxCell id="IE9EZzf0pemrarUlTUZ8-48" value="+ &lt;&lt;abstract&gt;&gt; getFechaCreacion() : String" style="text;align=left;verticalAlign=top;spacingLeft=4;spacingRight=4;overflow=hidden;rotatable=0;points=[[0,0.5],[1,0.5]];portConstraint=eastwest;rounded=0;shadow=0;html=0;" vertex="1" parent="IE9EZzf0pemrarUlTUZ8-39">
          <mxGeometry y="192" width="280" height="24" as="geometry" />
        </mxCell>
        <mxCell id="IE9EZzf0pemrarUlTUZ8-50" value="+ &lt;&lt;abstract&gt;&gt; getPermisos() : String&#xa;" style="text;align=left;verticalAlign=top;spacingLeft=4;spacingRight=4;overflow=hidden;rotatable=0;points=[[0,0.5],[1,0.5]];portConstraint=eastwest;rounded=0;shadow=0;html=0;" vertex="1" parent="IE9EZzf0pemrarUlTUZ8-39">
          <mxGeometry y="216" width="280" height="24" as="geometry" />
        </mxCell>
        <mxCell id="IE9EZzf0pemrarUlTUZ8-42" value="&lt;font size=&quot;1&quot; style=&quot;&quot;&gt;&lt;b style=&quot;&quot;&gt;&lt;i style=&quot;font-size: 14px;&quot;&gt;Component&lt;/i&gt;&lt;/b&gt;&lt;/font&gt;" style="text;html=1;align=center;verticalAlign=middle;whiteSpace=wrap;rounded=0;fontSize=16;" vertex="1" parent="1">
          <mxGeometry x="280" y="-3180" width="95" height="20" as="geometry" />
        </mxCell>
        <mxCell id="IE9EZzf0pemrarUlTUZ8-62" style="edgeStyle=orthogonalEdgeStyle;rounded=0;orthogonalLoop=1;jettySize=auto;html=1;entryX=0.25;entryY=1;entryDx=0;entryDy=0;endSize=12;startSize=12;dashed=1;dashPattern=8 8;endArrow=block;endFill=0;" edge="1" parent="1" source="IE9EZzf0pemrarUlTUZ8-51" target="IE9EZzf0pemrarUlTUZ8-39">
          <mxGeometry relative="1" as="geometry">
            <Array as="points">
              <mxPoint x="170" y="-2860" />
              <mxPoint x="350" y="-2860" />
            </Array>
          </mxGeometry>
        </mxCell>
        <mxCell id="IE9EZzf0pemrarUlTUZ8-51" value="Aspect" style="swimlane;fontStyle=0;align=center;verticalAlign=top;childLayout=stackLayout;horizontal=1;startSize=30;horizontalStack=0;resizeParent=1;resizeLast=0;collapsible=1;marginBottom=0;rounded=0;shadow=0;strokeWidth=1;fillColor=#fff2cc;strokeColor=#d6b656;" vertex="1" parent="1">
          <mxGeometry x="90" y="-2820" width="160" height="220" as="geometry">
            <mxRectangle x="110" y="-20" width="160" height="26" as="alternateBounds" />
          </mxGeometry>
        </mxCell>
        <mxCell id="IE9EZzf0pemrarUlTUZ8-53" value="- nombre : String&#xa;" style="text;align=left;verticalAlign=top;spacingLeft=4;spacingRight=4;overflow=hidden;rotatable=0;points=[[0,0.5],[1,0.5]];portConstraint=eastwest;rounded=0;shadow=0;html=0;" vertex="1" parent="IE9EZzf0pemrarUlTUZ8-51">
          <mxGeometry y="30" width="160" height="24" as="geometry" />
        </mxCell>
        <mxCell id="IE9EZzf0pemrarUlTUZ8-56" value="- extension : String&#xa;" style="text;align=left;verticalAlign=top;spacingLeft=4;spacingRight=4;overflow=hidden;rotatable=0;points=[[0,0.5],[1,0.5]];portConstraint=eastwest;rounded=0;shadow=0;html=0;" vertex="1" parent="IE9EZzf0pemrarUlTUZ8-51">
          <mxGeometry y="54" width="160" height="24" as="geometry" />
        </mxCell>
        <mxCell id="IE9EZzf0pemrarUlTUZ8-58" value="- tamanio : Real&#xa;" style="text;align=left;verticalAlign=top;spacingLeft=4;spacingRight=4;overflow=hidden;rotatable=0;points=[[0,0.5],[1,0.5]];portConstraint=eastwest;rounded=0;shadow=0;html=0;" vertex="1" parent="IE9EZzf0pemrarUlTUZ8-51">
          <mxGeometry y="78" width="160" height="24" as="geometry" />
        </mxCell>
        <mxCell id="IE9EZzf0pemrarUlTUZ8-57" value="- fechaCreacion : Date&#xa;" style="text;align=left;verticalAlign=top;spacingLeft=4;spacingRight=4;overflow=hidden;rotatable=0;points=[[0,0.5],[1,0.5]];portConstraint=eastwest;rounded=0;shadow=0;html=0;" vertex="1" parent="IE9EZzf0pemrarUlTUZ8-51">
          <mxGeometry y="102" width="160" height="24" as="geometry" />
        </mxCell>
        <mxCell id="IE9EZzf0pemrarUlTUZ8-55" value="- fechaModificacion : Date" style="text;align=left;verticalAlign=top;spacingLeft=4;spacingRight=4;overflow=hidden;rotatable=0;points=[[0,0.5],[1,0.5]];portConstraint=eastwest;rounded=0;shadow=0;html=0;" vertex="1" parent="IE9EZzf0pemrarUlTUZ8-51">
          <mxGeometry y="126" width="160" height="24" as="geometry" />
        </mxCell>
        <mxCell id="IE9EZzf0pemrarUlTUZ8-59" value="- permisos : String" style="text;align=left;verticalAlign=top;spacingLeft=4;spacingRight=4;overflow=hidden;rotatable=0;points=[[0,0.5],[1,0.5]];portConstraint=eastwest;rounded=0;shadow=0;html=0;" vertex="1" parent="IE9EZzf0pemrarUlTUZ8-51">
          <mxGeometry y="150" width="160" height="24" as="geometry" />
        </mxCell>
        <mxCell id="IE9EZzf0pemrarUlTUZ8-52" value="" style="line;html=1;strokeWidth=1;align=left;verticalAlign=middle;spacingTop=-1;spacingLeft=3;spacingRight=3;rotatable=0;labelPosition=right;points=[];portConstraint=eastwest;" vertex="1" parent="IE9EZzf0pemrarUlTUZ8-51">
          <mxGeometry y="174" width="160" height="8" as="geometry" />
        </mxCell>
        <mxCell id="IE9EZzf0pemrarUlTUZ8-61" value="+ prettyPrint() : String" style="text;align=left;verticalAlign=top;spacingLeft=4;spacingRight=4;overflow=hidden;rotatable=0;points=[[0,0.5],[1,0.5]];portConstraint=eastwest;rounded=0;shadow=0;html=0;" vertex="1" parent="IE9EZzf0pemrarUlTUZ8-51">
          <mxGeometry y="182" width="160" height="24" as="geometry" />
        </mxCell>
        <mxCell id="IE9EZzf0pemrarUlTUZ8-54" value="&lt;font size=&quot;1&quot; style=&quot;&quot;&gt;&lt;b style=&quot;&quot;&gt;&lt;i style=&quot;font-size: 14px;&quot;&gt;Concrete Component&lt;/i&gt;&lt;/b&gt;&lt;/font&gt;" style="text;html=1;align=center;verticalAlign=middle;whiteSpace=wrap;rounded=0;fontSize=16;" vertex="1" parent="1">
          <mxGeometry x="90" y="-2600" width="160" height="20" as="geometry" />
        </mxCell>
        <mxCell id="IE9EZzf0pemrarUlTUZ8-72" value="component" style="text;html=1;align=center;verticalAlign=middle;whiteSpace=wrap;rounded=0;fontSize=14;" vertex="1" parent="1">
          <mxGeometry x="760" y="-2900" width="90" height="15" as="geometry" />
        </mxCell>
        <mxCell id="IE9EZzf0pemrarUlTUZ8-73" value="1" style="text;html=1;align=center;verticalAlign=middle;whiteSpace=wrap;rounded=0;fontSize=16;" vertex="1" parent="1">
          <mxGeometry x="850" y="-2900" width="20" height="15" as="geometry" />
        </mxCell>
      </root>
    </mxGraphModel>
  </diagram>
</mxfile>
